<mxfile host="af87f198-8102-4bcc-9445-c709a7eeeecc" modified="2020-07-15T00:32:14.957Z" agent="5.0 (Windows NT 10.0; Win64; x64) AppleWebKit/537.36 (KHTML, like Gecko) Code/1.47.0 Chrome/78.0.3904.130 Electron/7.3.2 Safari/537.36" etag="t6idV1z02Cgvri9noBm-" version="13.1.3">
    <diagram id="6hGFLwfOUW9BJ-s0fimq" name="Page-1">
        <mxGraphModel dx="547" dy="617" grid="1" gridSize="10" guides="1" tooltips="1" connect="1" arrows="1" fold="1" page="1" pageScale="1" pageWidth="827" pageHeight="1169" math="0" shadow="0">
            <root>
                <mxCell id="0"/>
                <mxCell id="1" parent="0"/>
                <mxCell id="2" value="" style="rounded=0;whiteSpace=wrap;html=1;fillColor=none;strokeColor=#000000;strokeWidth=3;dashed=1;" parent="1" vertex="1">
                    <mxGeometry x="70" y="430" width="610" height="180" as="geometry"/>
                </mxCell>
                <mxCell id="8" value="" style="rounded=0;whiteSpace=wrap;html=1;fillColor=none;strokeColor=#000000;strokeWidth=3;dashed=1;" parent="1" vertex="1">
                    <mxGeometry x="70" y="690" width="610" height="180" as="geometry"/>
                </mxCell>
                <mxCell id="7" value="" style="edgeStyle=orthogonalEdgeStyle;rounded=0;orthogonalLoop=1;jettySize=auto;html=1;strokeColor=#000000;strokeWidth=3;" parent="1" source="5" target="6" edge="1">
                    <mxGeometry relative="1" as="geometry"/>
                </mxCell>
                <mxCell id="5" value="&lt;font color=&quot;#000000&quot; style=&quot;font-size: 18px&quot;&gt;&lt;b&gt;VSCode&lt;/b&gt;&lt;/font&gt;" style="rounded=0;whiteSpace=wrap;html=1;strokeColor=#000000;strokeWidth=3;fillColor=none;" parent="1" vertex="1">
                    <mxGeometry x="111" y="490" width="120" height="60" as="geometry"/>
                </mxCell>
                <mxCell id="48" value="" style="edgeStyle=orthogonalEdgeStyle;rounded=0;orthogonalLoop=1;jettySize=auto;html=1;strokeColor=#000000;strokeWidth=3;entryX=0;entryY=0.5;entryDx=0;entryDy=0;" parent="1" source="6" target="42" edge="1">
                    <mxGeometry relative="1" as="geometry">
                        <mxPoint x="530" y="520" as="targetPoint"/>
                    </mxGeometry>
                </mxCell>
                <mxCell id="6" value="&lt;font style=&quot;font-size: 18px&quot; color=&quot;#000000&quot;&gt;&lt;b&gt;Language Server&lt;/b&gt;&lt;/font&gt;" style="rounded=0;whiteSpace=wrap;html=1;strokeColor=#000000;strokeWidth=3;fillColor=none;" parent="1" vertex="1">
                    <mxGeometry x="311" y="490" width="139" height="60" as="geometry"/>
                </mxCell>
                <mxCell id="11" value="&lt;b style=&quot;color: rgb(0 , 0 , 0)&quot;&gt;&lt;font style=&quot;font-size: 18px&quot;&gt;Auth Server&lt;/font&gt;&lt;/b&gt;" style="rounded=0;whiteSpace=wrap;html=1;strokeColor=#000000;strokeWidth=3;fillColor=none;" parent="1" vertex="1">
                    <mxGeometry x="540" y="760" width="120" height="60" as="geometry"/>
                </mxCell>
                <mxCell id="12" value="&lt;b style=&quot;color: rgb(0 , 0 , 0)&quot;&gt;&lt;font style=&quot;font-size: 18px&quot;&gt;Client&lt;/font&gt;&lt;/b&gt;" style="text;html=1;strokeColor=none;fillColor=none;align=center;verticalAlign=middle;whiteSpace=wrap;rounded=0;" parent="1" vertex="1">
                    <mxGeometry x="700" y="490" width="110" height="50" as="geometry"/>
                </mxCell>
                <mxCell id="14" value="&lt;b style=&quot;color: rgb(0 , 0 , 0)&quot;&gt;&lt;font style=&quot;font-size: 18px&quot;&gt;Server&lt;/font&gt;&lt;/b&gt;" style="text;html=1;strokeColor=none;fillColor=none;align=center;verticalAlign=middle;whiteSpace=wrap;rounded=0;" parent="1" vertex="1">
                    <mxGeometry x="710" y="770" width="110" height="50" as="geometry"/>
                </mxCell>
                <mxCell id="30" value="" style="rounded=0;whiteSpace=wrap;html=1;fillColor=none;strokeColor=#000000;strokeWidth=3;dashed=1;" parent="1" vertex="1">
                    <mxGeometry x="80" y="930" width="600" height="180" as="geometry"/>
                </mxCell>
                <mxCell id="32" value="&lt;font color=&quot;#000000&quot; style=&quot;font-size: 18px&quot;&gt;&lt;b&gt;VSCode&lt;/b&gt;&lt;/font&gt;" style="rounded=0;whiteSpace=wrap;html=1;strokeColor=#000000;strokeWidth=3;fillColor=none;" parent="1" vertex="1">
                    <mxGeometry x="121" y="990" width="120" height="60" as="geometry"/>
                </mxCell>
                <mxCell id="36" style="edgeStyle=orthogonalEdgeStyle;rounded=0;orthogonalLoop=1;jettySize=auto;html=1;exitX=0;exitY=0.5;exitDx=0;exitDy=0;strokeColor=#000000;strokeWidth=3;" parent="1" source="33" target="32" edge="1">
                    <mxGeometry relative="1" as="geometry"/>
                </mxCell>
                <mxCell id="33" value="&lt;font style=&quot;font-size: 18px&quot; color=&quot;#000000&quot;&gt;&lt;b&gt;Language Server&lt;/b&gt;&lt;/font&gt;" style="rounded=0;whiteSpace=wrap;html=1;strokeColor=#000000;strokeWidth=3;fillColor=none;" parent="1" vertex="1">
                    <mxGeometry x="321" y="990" width="139" height="60" as="geometry"/>
                </mxCell>
                <mxCell id="34" value="&lt;b style=&quot;color: rgb(0 , 0 , 0)&quot;&gt;&lt;font style=&quot;font-size: 18px&quot;&gt;Client&lt;/font&gt;&lt;/b&gt;" style="text;html=1;strokeColor=none;fillColor=none;align=center;verticalAlign=middle;whiteSpace=wrap;rounded=0;" parent="1" vertex="1">
                    <mxGeometry x="700" y="1010" width="110" height="50" as="geometry"/>
                </mxCell>
                <mxCell id="53" style="edgeStyle=orthogonalEdgeStyle;rounded=0;orthogonalLoop=1;jettySize=auto;html=1;exitX=1;exitY=0.5;exitDx=0;exitDy=0;strokeColor=#000000;strokeWidth=3;entryX=1;entryY=0.5;entryDx=0;entryDy=0;" parent="1" source="42" target="55" edge="1">
                    <mxGeometry relative="1" as="geometry">
                        <mxPoint x="790" y="1000" as="targetPoint"/>
                        <Array as="points">
                            <mxPoint x="720" y="520"/>
                            <mxPoint x="720" y="1020"/>
                        </Array>
                    </mxGeometry>
                </mxCell>
                <mxCell id="58" value="&lt;b&gt;&lt;font color=&quot;#000000&quot; style=&quot;font-size: 18px&quot;&gt;message&lt;/font&gt;&lt;/b&gt;" style="edgeLabel;html=1;align=center;verticalAlign=middle;resizable=0;points=[];" parent="53" vertex="1" connectable="0">
                    <mxGeometry x="-0.3029" y="3" relative="1" as="geometry">
                        <mxPoint y="-1" as="offset"/>
                    </mxGeometry>
                </mxCell>
                <mxCell id="42" value="&lt;font color=&quot;#000000&quot; style=&quot;font-size: 18px&quot;&gt;&lt;b&gt;MiddleWare&lt;/b&gt;&lt;/font&gt;" style="rounded=0;whiteSpace=wrap;html=1;strokeColor=#000000;strokeWidth=3;fillColor=none;" parent="1" vertex="1">
                    <mxGeometry x="540" y="490" width="120" height="60" as="geometry"/>
                </mxCell>
                <mxCell id="50" value="" style="endArrow=classic;startArrow=classic;html=1;strokeColor=#000000;strokeWidth=3;exitX=0.5;exitY=0;exitDx=0;exitDy=0;entryX=0.5;entryY=1;entryDx=0;entryDy=0;" parent="1" source="11" target="42" edge="1">
                    <mxGeometry width="50" height="50" relative="1" as="geometry">
                        <mxPoint x="450" y="710" as="sourcePoint"/>
                        <mxPoint x="590" y="640" as="targetPoint"/>
                    </mxGeometry>
                </mxCell>
                <mxCell id="51" value="&lt;b&gt;&lt;font color=&quot;#000000&quot; style=&quot;font-size: 18px&quot;&gt;Auth&lt;/font&gt;&lt;/b&gt;" style="edgeLabel;html=1;align=center;verticalAlign=middle;resizable=0;points=[];" parent="50" vertex="1" connectable="0">
                    <mxGeometry x="0.2095" y="-1" relative="1" as="geometry">
                        <mxPoint as="offset"/>
                    </mxGeometry>
                </mxCell>
                <mxCell id="57" value="" style="edgeStyle=orthogonalEdgeStyle;rounded=0;orthogonalLoop=1;jettySize=auto;html=1;strokeColor=#000000;strokeWidth=3;entryX=1;entryY=0.5;entryDx=0;entryDy=0;" parent="1" source="55" target="33" edge="1">
                    <mxGeometry relative="1" as="geometry">
                        <mxPoint x="469.9999999999998" y="1020" as="targetPoint"/>
                    </mxGeometry>
                </mxCell>
                <mxCell id="55" value="&lt;font color=&quot;#000000&quot; style=&quot;font-size: 18px&quot;&gt;&lt;b&gt;MiddleWare&lt;/b&gt;&lt;/font&gt;" style="rounded=0;whiteSpace=wrap;html=1;strokeColor=#000000;strokeWidth=3;fillColor=none;" parent="1" vertex="1">
                    <mxGeometry x="550" y="990" width="110" height="60" as="geometry"/>
                </mxCell>
                <mxCell id="59" value="" style="endArrow=classic;startArrow=classic;html=1;strokeColor=#000000;strokeWidth=3;" parent="1" edge="1">
                    <mxGeometry width="50" height="50" relative="1" as="geometry">
                        <mxPoint x="599" y="990" as="sourcePoint"/>
                        <mxPoint x="599" y="820" as="targetPoint"/>
                    </mxGeometry>
                </mxCell>
                <mxCell id="60" value="&lt;b&gt;&lt;font color=&quot;#000000&quot; style=&quot;font-size: 18px&quot;&gt;Auth&lt;/font&gt;&lt;/b&gt;" style="edgeLabel;html=1;align=center;verticalAlign=middle;resizable=0;points=[];" parent="59" vertex="1" connectable="0">
                    <mxGeometry x="0.2095" y="-1" relative="1" as="geometry">
                        <mxPoint as="offset"/>
                    </mxGeometry>
                </mxCell>
            </root>
        </mxGraphModel>
    </diagram>
</mxfile>